<svg id="Capa_1" enable-background="new 0 0 510 510" height="512" viewBox="0 0 510 510" width="512" xmlns="http://www.w3.org/2000/svg"><g><g><path d="m139.39 104.5-109.39 67.74v307.76l105 10 120-10 10-214-10-190.32z" fill="#ecf1fd"/><path d="m480 172.24-105-66.24-120-30.32v404.32l120 10 105-10z" fill="#dbe3fd"/><path id="XMLID_93_" d="m465 0h-60v64.886l25.75 21.281 34.25 4.403z" fill="#cc295f"/><path d="m0 109.833v75l255-109.156 10-35.927-10-39.073z" fill="#ff6c6c"/><path d="m255 .677v75l255 109.156v-75z" fill="#f37"/><path d="m30 480v30h225l10-15-10-15z" fill="#dbe3fd"/><path d="m255 480h225v30h-225z" fill="#c3d3fc"/></g><path d="m135 220.606 40.606 40.607v38.787h-38.787l-40.606-40.606-21.213 21.212 34.393 34.394-34.393 34.394 21.213 21.212 40.606-40.606h38.787v38.787l-40.606 40.607 21.213 21.212 49.393-49.393v-132.426l-49.393-49.393z" fill="#98dbfd"/><g fill="#e9bc3e"><path d="m308 240h-15v150h15c41.355 0 75-33.645 75-75s-33.645-75-75-75z"/><path d="m293 180h30v30h-30z"/><path d="m377.853 215.147h30v30h-30z" transform="matrix(.707 -.707 .707 .707 -47.675 345.197)"/><path d="m413 300h30v30h-30z"/><path d="m377.853 384.853h30v30h-30z" transform="matrix(.707 -.707 .707 .707 -167.675 394.903)"/><path d="m293 420h30v30h-30z"/></g></g></svg>